<svg width="22" height="22" viewBox="0 0 22 22" fill="none" xmlns="http://www.w3.org/2000/svg">
<path d="M13.2272 17.2515C13.053 17.2515 12.8789 17.1874 12.7414 17.0499C12.4755 16.784 12.4755 16.344 12.7414 16.0782L17.8197 10.9999L12.7414 5.92153C12.4755 5.6557 12.4755 5.2157 12.7414 4.94986C13.0072 4.68403 13.4472 4.68403 13.713 4.94986L19.2772 10.514C19.543 10.7799 19.543 11.2199 19.2772 11.4857L13.713 17.0499C13.5755 17.1874 13.4014 17.2515 13.2272 17.2515Z" fill="white"/>
<path d="M18.6355 11.6875H3.20801C2.83217 11.6875 2.52051 11.3758 2.52051 11C2.52051 10.6242 2.83217 10.3125 3.20801 10.3125H18.6355C19.0113 10.3125 19.323 10.6242 19.323 11C19.323 11.3758 19.0113 11.6875 18.6355 11.6875Z" fill="white"/>
</svg>
