<svg width="16" height="16" viewBox="0 0 16 16" fill="none" xmlns="http://www.w3.org/2000/svg">
<g clip-path="url(#clip0_175_469)">
<path d="M8.53082 13.1563C4.90779 13.1563 1.9707 10.2193 1.9707 6.59622C1.9707 2.97315 4.90775 0.0361328 8.53082 0.0361328C12.1539 0.0361328 15.0909 2.97318 15.0909 6.59625C15.0909 10.2193 12.1539 13.1563 8.53082 13.1563ZM8.53082 1.91046C5.94292 1.91046 3.84503 4.00835 3.84503 6.59625C3.84503 9.18416 5.94292 11.282 8.53082 11.282C11.1187 11.282 13.2166 9.18416 13.2166 6.59625C13.2166 4.00835 11.1187 1.91046 8.53082 1.91046Z" fill="white"/>
<path d="M1.03342 15.0307C0.910079 15.0314 0.787813 15.0077 0.673632 14.9611C0.559451 14.9145 0.4556 14.8457 0.368036 14.7589C0.000541359 14.3944 -0.00188128 13.801 0.362609 13.4335L0.368036 13.4281L3.89175 9.9044C4.27216 9.5369 4.87846 9.5474 5.24596 9.92782C5.61345 10.3082 5.60295 10.9145 5.22254 11.282L1.6988 14.7589C1.61123 14.8457 1.50738 14.9145 1.3932 14.9611C1.27902 15.0077 1.15675 15.0314 1.03342 15.0307Z" fill="white"/>
</g>
<defs>
<clipPath id="clip0_175_469">
<rect width="15" height="15" fill="white" transform="translate(0.0908203 0.0334473)"/>
</clipPath>
</defs>
</svg>
