<svg width="31" height="30" viewBox="0 0 31 30" fill="none" xmlns="http://www.w3.org/2000/svg">
<path d="M27.0596 25.3154V26.5342H24.042V24.7471C24.042 24.5889 23.9131 24.46 23.7549 24.46C23.5967 24.46 23.4678 24.5889 23.4678 24.7471V26.5342H16.6463L15.9912 22.6318L16.2771 21.624L16.7881 21.9873C16.8936 22.0752 17.0225 22.1221 17.1572 22.1221C17.1982 22.1221 17.2451 22.1162 17.2979 22.1045C17.4736 22.0635 17.6201 21.958 17.6963 21.7998L19.3082 19.4092L23.2217 20.3936C25.4834 20.9619 27.0596 22.9893 27.0596 25.3154ZM21.7978 23.9092V23.042C21.7978 22.8018 21.5928 22.5967 21.3525 22.5967H18.9619C18.7217 22.5967 18.5166 22.8018 18.5166 23.042V23.9092C18.5166 24.1494 18.7217 24.3545 18.9619 24.3545H21.3525C21.5986 24.3545 21.7978 24.1553 21.7978 23.9092Z" fill="white"/>
<path d="M19.091 23.165H21.2238V23.7861H19.091V23.165ZM20.1135 5.33086C20.6232 5.56465 21.0229 5.75684 21.2414 5.8623C21.0287 6.29766 20.8412 6.6627 20.6777 6.9668C20.291 6.67617 20.0578 6.2209 20.0578 5.72754C20.0578 5.59453 20.0766 5.46152 20.1135 5.33086ZM20.3959 7.47539C20.134 7.93066 19.9635 8.17734 19.8756 8.29395H10.2041C10.1156 8.17441 9.9457 7.92773 9.68848 7.47773C10.2469 7.08105 10.5832 6.44238 10.5832 5.74512C10.5832 5.52598 10.5498 5.3127 10.4842 5.10703C11.8189 4.51289 13.6617 3.76055 15.0422 3.46582C16.418 3.75059 18.2426 4.49414 19.5891 5.09355C19.5234 5.2998 19.4895 5.51367 19.4895 5.7334C19.4895 6.44062 19.8305 7.08398 20.3959 7.47539ZM16.302 5.76855V5.18848C16.302 5.07129 16.2316 4.97168 16.1203 4.9248L15.1477 4.5498C15.0773 4.52051 15.007 4.52051 14.9367 4.5498L13.9641 4.9248C13.8527 4.96582 13.7824 5.07129 13.7824 5.18848V5.76855C13.7824 6.50684 14.1691 7.09863 14.9074 7.47363C14.9484 7.49707 14.9895 7.50879 15.0363 7.50879C15.0832 7.50879 15.1242 7.49707 15.177 7.47363C15.9152 7.10449 16.302 6.51269 16.302 5.76855ZM19.6559 9.87305L19.5246 12.4775C19.4561 14.032 18.6018 15.3691 17.3525 16.1174C16.6758 16.5223 15.883 16.7549 15.0363 16.7549C14.2119 16.7549 13.4373 16.5334 12.7717 16.1455C12.7547 16.132 12.7359 16.1209 12.716 16.1121C12.433 15.9422 12.1705 15.7418 11.9332 15.515C11.1252 14.7451 10.6037 13.6758 10.548 12.4775L10.408 9.69609C10.6904 10.0037 11.0549 10.2973 11.4797 10.5498C12.4934 11.1592 13.7531 11.4932 15.0363 11.4932C17.1592 11.4932 18.7869 10.9049 19.6559 9.87305Z" fill="white"/>
<path d="M10.4957 8.87402H19.6141C19.068 10.1596 17.3945 10.9131 15.042 10.9131C12.7803 10.9131 11.033 9.81973 10.4957 8.87402ZM17.2041 16.8451V18.5004L15.0414 20.0443L12.8857 18.5109V16.8527C13.5391 17.1586 14.268 17.3291 15.0361 17.3291C15.8113 17.3291 16.5467 17.1562 17.2041 16.8451ZM17.1221 21.5244L16.2783 20.9238L15.5371 20.3971L17.5387 18.9645L18.7164 19.2604L17.21 21.4951C17.1982 21.5068 17.1924 21.5244 17.1865 21.5361C17.1865 21.5361 17.1807 21.5479 17.1689 21.5479C17.1572 21.5479 17.1455 21.542 17.1455 21.542C17.1338 21.5361 17.1279 21.5303 17.1221 21.5244ZM15.4504 22.8955L16.0621 26.5342H14.0008L14.6828 22.8955H15.4504ZM15.0455 20.748L15.7768 21.2684L15.4785 22.3213H14.6564L14.3359 21.2537L15.0455 20.748ZM15.7217 5.3877V5.76855C15.7217 6.24316 15.4932 6.62402 15.0361 6.89355C14.5791 6.62402 14.3506 6.24902 14.3506 5.76855V5.3877L15.0361 5.12402L15.7217 5.3877ZM12.8916 21.5361L12.874 21.501L11.3588 19.2639L12.54 18.9668L14.5492 20.3953L13.832 20.9074L12.9502 21.5361C12.9443 21.542 12.9385 21.542 12.9326 21.5479C12.9268 21.5537 12.915 21.5537 12.9092 21.5537C12.8975 21.5479 12.8975 21.542 12.8916 21.5361ZM8.84863 23.165H10.9814V23.7861H8.84863V23.165ZM9.96016 5.34316C9.99648 5.47148 10.0146 5.60449 10.0146 5.73926C10.0146 6.22676 9.78672 6.68145 9.4082 6.9709C9.2459 6.66738 9.05957 6.30293 8.84863 5.86816C9.02734 5.78145 9.42754 5.5875 9.96016 5.34316Z" fill="white"/>
<path d="M13.8426 21.6052L14.1514 22.6259L13.4172 26.5341H6.60449V24.747C6.60449 24.5888 6.47559 24.4599 6.31738 24.4599C6.15918 24.4599 6.03027 24.5888 6.03027 24.747V26.5341H3.02441V25.3153C3.02441 22.9892 4.60645 20.9618 6.8623 20.3935L10.767 19.4126L12.3936 21.8114C12.4756 21.9638 12.6221 22.0692 12.792 22.1103C12.8389 22.1161 12.874 22.122 12.9209 22.122C13.0557 22.122 13.1846 22.0868 13.29 21.9989L13.8426 21.6052ZM11.5557 23.9091V23.0419C11.5557 22.8017 11.3506 22.5966 11.1104 22.5966H8.71973C8.47949 22.5966 8.27441 22.8017 8.27441 23.0419V23.9091C8.27441 24.1493 8.47949 24.3544 8.71973 24.3544H11.1045C11.3564 24.3544 11.5498 24.1552 11.5557 23.9091Z" fill="white"/>
</svg>
